<?xml version="1.0" encoding="iso-8859-1"?>
<!-- Generator: Adobe Illustrator 16.0.0, SVG Export Plug-In . SVG Version: 6.00 Build 0)  -->
<!DOCTYPE svg PUBLIC "-//W3C//DTD SVG 1.1//EN" "http://www.w3.org/Graphics/SVG/1.1/DTD/svg11.dtd">
<svg version="1.1" id="&#x56FE;&#x5C42;_1" xmlns="http://www.w3.org/2000/svg" xmlns:xlink="http://www.w3.org/1999/xlink" x="0px"
	 y="0px" width="16px" height="16px" viewBox="0 0 16 16" style="enable-background:new 0 0 16 16;" xml:space="preserve">
<g>
	<path style="fill-rule:evenodd;clip-rule:evenodd;fill:#EEEEEE;" d="M14.267,14.713c-0.576,0-1.044-0.584-1.044-1.305V2.218
		c0-0.721,0.468-1.305,1.044-1.305c0.577,0,1.045,0.584,1.045,1.305v11.19C15.312,14.129,14.844,14.713,14.267,14.713z
		 M12.625,13.305l-1.42-0.342v0.738c0,0.764-0.498,1.385-1.111,1.385H5.093c-0.614,0-1.111-0.621-1.111-1.385l-0.01-2.717
		L1.882,10.24V5.389l10.743-3.021V13.305z M10.649,12.809l-6.082-1.688v2.473c0,0.381,0.29,0.744,0.597,0.744h5.072
		c0.308,0,0.412-0.256,0.412-0.637V12.809z M0.987,10.984c-0.165,0-0.298-0.168-0.298-0.373V5.016c0-0.206,0.134-0.373,0.298-0.373
		c0.165,0,0.298,0.167,0.298,0.373v5.595C1.285,10.816,1.152,10.984,0.987,10.984z"/>
</g>
</svg>
