<?xml version="1.0" encoding="iso-8859-1"?>
<!-- Generator: Adobe Illustrator 16.0.0, SVG Export Plug-In . SVG Version: 6.00 Build 0)  -->
<!DOCTYPE svg PUBLIC "-//W3C//DTD SVG 1.1//EN" "http://www.w3.org/Graphics/SVG/1.1/DTD/svg11.dtd">
<svg version="1.1" id="&#x56FE;&#x5C42;_1" xmlns="http://www.w3.org/2000/svg" xmlns:xlink="http://www.w3.org/1999/xlink" x="0px"
	 y="0px" width="16px" height="16px" viewBox="0 0 16 16" style="enable-background:new 0 0 16 16;" xml:space="preserve">
<g>
	<g>
		<g>
			<path style="fill-rule:evenodd;clip-rule:evenodd;fill:#EEEEEE;" d="M3.967,12.616c0.064,0.025,0.128,0.051,0.191,0.078
				c0.076,0.07,0.089,0.18,0.172,0.248c0.172,0.037,0.246-0.023,0.305-0.152c-0.023-0.402-0.21-0.865-0.401-1.127
				c-0.07-0.076-0.139-0.152-0.209-0.229c-0.109-0.271-0.113-0.484-0.248-0.707c-0.114-0.186-0.285-0.346-0.344-0.59
				c-0.1-0.42,0.171-0.779,0.344-0.953c0.583-0.59,1.603-0.946,2.404-1.298c0.272-0.122,0.546-0.243,0.82-0.363
				C6.985,7.93,6.695,7.981,6.62,8.306c0.276,0.472,1.228,0.031,1.469-0.153c0.464-0.354,0.654-1.029,1.164-1.335
				c0.393-0.133,0.787-0.268,1.182-0.401c0.688-0.305,1.375-0.61,2.062-0.916c0.414-0.198,1.324-0.355,1.219-0.992
				c-0.377-0.235-1.119-0.054-1.525-0.286c-0.752-0.429-1.113-1.346-2.061-1.603c-0.006-0.012-0.012-0.025-0.018-0.038
				c0.152-0.238,0.871-1.096,0.457-1.412C9.907,1.049,9.688,1.795,9.005,1.667C8.743,1.618,8.557,1.439,8.336,1.343
				C7.782,1.1,7.319,0.934,6.487,0.942C6.213,0.993,5.939,1.044,5.666,1.095c-0.721,0.221-1.305,0.627-1.831,1.05
				c-0.345,0.276-0.69,0.671-0.953,1.03C2.753,3.371,2.626,3.569,2.5,3.765C2.293,3.893,2.025,3.88,1.832,3.995
				C1.06,4.45,0.708,5.164,0.401,6.093c0,0.025,0,0.05,0,0.077C0.51,6.084,1.548,5.29,1.869,5.73
				c-0.063,0.44-0.126,0.878-0.19,1.316C1.605,6.998,1.57,6.969,1.47,6.99C1.438,7.021,1.406,7.053,1.375,7.085
				c-0.008,0.05-0.013,0.102-0.021,0.152C1.399,7.27,1.445,7.301,1.487,7.333c0.116-0.012,0.125-0.032,0.191-0.077
				c0.006,1.11,0.213,1.897,0.306,2.786c-0.311,0.068-0.552,0.248-0.801,0.381c-0.1-0.053-0.135-0.049-0.249-0.018
				c-0.05,0.086-0.058,0.143-0.038,0.266c-0.092,0.037-0.184-0.018-0.324,0.02c-0.462,0.119-0.218,0.484-0.077,0.688
				c-0.006,0.012-0.014,0.025-0.019,0.037c0.033,0.309,0.043,0.492,0.115,0.707c0.656-0.102,0.305-1.16,1.696-1.029
				c-0.54,0.863-0.76,1.422-0.572,2.594c0.032,0.012,0.064,0.023,0.096,0.037c0.056-0.006,0.114-0.014,0.171-0.02
				c0.071-0.1,0.136-0.186,0.152-0.344c0.006,0,0.014,0,0.019,0c0.021,0.092,0.023,0.098,0.096,0.135
				c0.051,0.006,0.103,0.014,0.153,0.02c0.019-0.033,0.037-0.064,0.057-0.096c0-0.045,0-0.09,0-0.135
				c-0.031-0.031-0.063-0.062-0.094-0.094c-0.123,0.006-0.152,0.025-0.191,0.113c-0.008,0-0.013,0-0.021,0
				c0.008-0.057,0.013-0.113,0.021-0.172c0.191,0.027,0.265-0.025,0.38-0.115c0.025-0.088,0.049-0.186,0.021-0.285
				c-0.046-0.057-0.089-0.115-0.135-0.172c-0.012,0-0.024,0-0.037,0c0.105-0.043,0.157-0.016,0.209-0.115
				c0.052-0.105,0.006-0.191-0.076-0.229c0.063-0.045,0.126-0.088,0.19-0.133c-0.019,0.086-0.022,0.146,0.019,0.209
				c0.035,0.062,0.054,0.066,0.114,0.098c0.126-0.016,0.137-0.043,0.21-0.098c0-0.068,0-0.139,0-0.209
				c0.171,0.076,0.343,0.152,0.516,0.229c-0.013,0.096-0.026,0.191-0.039,0.287c0.045,0.037,0.089,0.076,0.134,0.113
				C3.811,12.774,3.919,12.698,3.967,12.616z M10.112,4.033c0.055,0,0.113,0,0.17,0c0.039,0.045,0.076,0.089,0.115,0.134
				c0.006,0.057,0.012,0.114,0.02,0.17c-0.039,0.039-0.078,0.077-0.115,0.115c-0.062,0-0.127,0-0.189,0
				c-0.041-0.032-0.078-0.063-0.115-0.096c-0.006-0.063-0.014-0.127-0.02-0.189C10.022,4.122,10.065,4.078,10.112,4.033z
				 M7.268,1.724C7.319,1.693,7.37,1.661,7.421,1.628c0.146,0.009,0.203,0.047,0.268,0.134c0,0.064,0,0.128,0,0.191
				C7.65,1.998,7.612,2.042,7.573,2.087C7.298,2.153,7.198,1.956,7.268,1.724z M3.147,11.72c-0.503-0.479-0.62-1.023-1.544-0.877
				c-0.138-0.66,0.511-0.885,0.992-0.992c0.019-1.978,0.46-3.208,1.202-4.407c0-0.032,0-0.062,0-0.095
				c-0.192-0.142-0.378-0.141-0.63-0.057c0.17-0.305,0.496-0.52,0.859-0.629c0.14-0.021,0.28-0.039,0.419-0.058
				C4.528,4.51,4.61,4.414,4.693,4.319c0.279-0.248,0.559-0.496,0.839-0.745C5.94,3.265,6.395,2.972,6.907,2.773
				c0.19-0.044,0.381-0.088,0.572-0.133c0.736,0.004,0.785,0.358,1.239,0.477c0.361,0.096,0.544-0.188,0.859-0.171
				c0.025,0.038,0.051,0.076,0.076,0.113C9.599,3.681,8.315,4.661,7.86,4.987C7.635,5.148,7.303,5.31,7.172,5.558
				c-0.288,0.55-0.081,0.759-0.686,1.05C6.385,6.657,6.234,6.741,6.086,6.685C6.06,6.658,6.035,6.633,6.01,6.608
				c0.054-0.144,0.098-0.259,0.095-0.459C6.093,6.144,6.08,6.137,6.066,6.131C5.705,6.436,5.342,6.741,4.98,7.046
				C4.426,7.494,3.91,8.184,3.51,8.783C3.308,9.085,2.908,9.64,3.014,10.194c0.132,0.689,1.182,0.863,0.974,1.812
				C3.694,12.196,3.328,11.89,3.147,11.72z M10.513,2.202c-0.068,0.097-0.084,0.14-0.041,0.267c0.041,0.013,0.078,0.026,0.117,0.039
				c0.115-0.058,0.24-0.204,0.057-0.287C10.601,2.214,10.556,2.208,10.513,2.202z M11.714,2.66c0.115-0.058,0.242-0.204,0.057-0.287
				c-0.045-0.007-0.09-0.013-0.133-0.019c-0.049,0.064-0.1,0.105-0.059,0.21C11.618,2.628,11.642,2.63,11.714,2.66z M11.179,2.926
				c0.033-0.141,0.002-0.219-0.115-0.267c-0.049-0.007-0.1-0.013-0.15-0.02c-0.033,0.038-0.064,0.077-0.096,0.115
				c-0.006,0.057-0.012,0.114-0.02,0.171c0.076,0.078,0.107,0.114,0.266,0.116C11.103,3.003,11.142,2.964,11.179,2.926z
				 M12.743,2.869c-0.01-0.123-0.035-0.144-0.096-0.209c-0.057-0.007-0.113-0.013-0.172-0.02c-0.031,0.038-0.062,0.077-0.096,0.115
				c-0.006,0.051-0.012,0.101-0.018,0.152c0.072,0.074,0.098,0.109,0.248,0.114C12.655,2.971,12.698,2.92,12.743,2.869z
				 M13.698,3.594c0.074-0.07,0.111-0.121,0.17-0.21c-0.012-0.147-0.051-0.182-0.113-0.268c-0.07-0.013-0.141-0.025-0.211-0.038
				c-0.037,0.019-0.076,0.038-0.113,0.058c-0.072,0.113-0.086,0.213-0.039,0.362C13.483,3.562,13.528,3.597,13.698,3.594z
				 M12.171,3.461c0.027-0.063,0.014-0.105-0.02-0.153c-0.047-0.07-0.07-0.076-0.189-0.076c-0.025,0.031-0.051,0.064-0.078,0.095
				C11.772,3.531,12.097,3.647,12.171,3.461z M7.764,3.537C7.803,3.53,7.84,3.524,7.879,3.518c0.047-0.076,0.057-0.102,0.038-0.21
				C7.86,3.295,7.803,3.283,7.745,3.271C7.72,3.295,7.695,3.32,7.668,3.345c0.006,0.045,0.014,0.091,0.021,0.133
				C7.714,3.499,7.739,3.518,7.764,3.537z M15.433,4.663c-0.018,0.031-0.037,0.062-0.057,0.094c-0.006,0.02-0.012,0.039-0.02,0.058
				c0.008,0.019,0.014,0.038,0.02,0.058c0.062,0.039,0.076,0.054,0.189,0.056c0.025-0.031,0.053-0.062,0.078-0.095
				C15.63,4.694,15.591,4.659,15.433,4.663z M13.812,5.292c-0.039,0.05-0.076,0.102-0.113,0.152
				c0.035,0.081,0.047,0.107,0.113,0.153c0.045-0.006,0.09-0.013,0.135-0.019c0.062-0.097,0.086-0.21-0.039-0.268
				C13.874,5.304,13.843,5.298,13.812,5.292z M16.368,5.959c-0.02,0.026-0.037,0.051-0.057,0.077
				c-0.006,0.045-0.014,0.089-0.021,0.134c0.064,0.039,0.078,0.054,0.191,0.056c0.008,0,0.014,0,0.021,0
				C16.587,6.1,16.579,5.959,16.368,5.959z M1.202,5.998C1.118,6.076,1.065,6.111,1.05,6.264c0.062,0.109,0.075,0.152,0.191,0.211
				C1.31,6.461,1.379,6.449,1.45,6.436C1.604,6.229,1.559,5.974,1.202,5.998z M13.03,7.046c0.006,0.012,0.012,0.026,0.018,0.039
				c0.066,0.04,0.09,0.056,0.211,0.056c0.006,0,0.012,0,0.018,0c0.053-0.074,0.078-0.089,0.078-0.229
				c-0.014-0.019-0.025-0.037-0.039-0.058c-0.057-0.013-0.113-0.025-0.172-0.038C13.069,6.888,13.034,6.898,13.03,7.046z
				 M0.802,6.951c-0.006-0.012-0.013-0.025-0.02-0.038C0.757,6.907,0.731,6.9,0.706,6.895c-0.02,0.013-0.038,0.025-0.058,0.038
				c0,0.039,0,0.076,0,0.114c0.045,0.006,0.09,0.012,0.133,0.019C0.789,7.028,0.795,6.99,0.802,6.951z M10.397,6.932
				c-0.076-0.006-0.152-0.013-0.23-0.019c-0.084,0.071-0.137,0.103-0.189,0.21c-0.002,0.213,0.049,0.251,0.135,0.363
				c0.1,0.029,0.211,0.057,0.305,0c0.092-0.042,0.127-0.1,0.172-0.191c-0.008-0.064-0.014-0.128-0.02-0.19
				C10.53,7.01,10.491,6.969,10.397,6.932z M0.553,7.504c0-0.051,0-0.101,0-0.153C0.51,7.276,0.478,7.261,0.362,7.256
				C0.35,7.262,0.337,7.27,0.325,7.276C0.141,7.504,0.448,7.742,0.553,7.504z M1.184,7.887c0.05,0.006,0.1,0.012,0.152,0.019
				c0.026-0.039,0.052-0.076,0.077-0.114c0.006-0.033,0.013-0.064,0.019-0.095C1.357,7.615,1.349,7.58,1.184,7.581
				C1.159,7.613,1.132,7.644,1.107,7.677C1.059,7.776,1.104,7.85,1.184,7.887z M10.798,8.039c0.039-0.006,0.076-0.013,0.115-0.019
				C10.931,8.013,10.95,8.007,10.97,8c0.006-0.058,0.012-0.114,0.02-0.171c0-0.007,0-0.013,0-0.02
				c-0.059-0.025-0.115-0.051-0.172-0.076C10.698,7.815,10.653,7.945,10.798,8.039z M0.573,8.097
				c0.034,0.075,0.045,0.09,0.133,0.114c0.048,0.014,0.067,0.006,0.115-0.019c0.031-0.033,0.063-0.064,0.095-0.095
				c0-0.039,0-0.077,0-0.115C0.877,7.95,0.839,7.918,0.802,7.887C0.757,7.88,0.713,7.874,0.668,7.866
				C0.629,7.912,0.592,7.956,0.553,8C0.561,8.032,0.566,8.063,0.573,8.097z M0.839,8.344C0.776,8.503,0.764,8.592,0.821,8.763
				C0.897,8.809,0.973,8.852,1.05,8.897c0.111-0.005,0.171-0.021,0.229-0.077c0.319-0.165,0.072-0.597-0.287-0.573
				C0.942,8.281,0.89,8.312,0.839,8.344z M6.543,8.84c0.007-0.05,0.013-0.102,0.02-0.152C6.524,8.655,6.487,8.624,6.448,8.592
				C6.392,8.586,6.334,8.58,6.277,8.573C6.199,8.649,6.163,8.68,6.162,8.84c0.039,0.039,0.077,0.077,0.116,0.114
				c0.05,0,0.102,0,0.152,0C6.467,8.917,6.506,8.878,6.543,8.84z M4.922,9.45C4.98,9.456,5.036,9.462,5.094,9.47
				c0.038-0.045,0.076-0.088,0.115-0.135c0.006-0.049,0.013-0.102,0.019-0.15C5.183,9.146,5.138,9.108,5.094,9.068
				C5.036,9.062,4.98,9.056,4.922,9.05C4.849,9.12,4.809,9.151,4.789,9.278C4.825,9.368,4.835,9.409,4.922,9.45z M8.679,9.126
				c0,0.031,0,0.064,0,0.096C8.73,9.247,8.746,9.255,8.833,9.259c0.013-0.02,0.025-0.037,0.038-0.057
				c0.006-0.031,0.014-0.064,0.02-0.094c-0.02-0.014-0.039-0.026-0.058-0.04C8.795,9.062,8.756,9.056,8.718,9.05
				C8.706,9.076,8.693,9.101,8.679,9.126z M6.372,9.45C6.367,9.265,6.316,9.226,6.238,9.126C6.155,9.114,6.072,9.101,5.991,9.089
				C5.939,9.12,5.889,9.151,5.838,9.185C5.804,9.276,5.777,9.341,5.781,9.489c0.063,0.074,0.088,0.129,0.189,0.17
				c0.092,0.045,0.214,0.016,0.268-0.037C6.312,9.581,6.336,9.526,6.372,9.45z M4.445,9.298c-0.013-0.111-0.03-0.135-0.114-0.172
				C4.299,9.12,4.267,9.114,4.235,9.108C4.223,9.114,4.21,9.12,4.197,9.126C4.157,9.188,4.142,9.202,4.14,9.317
				c0,0.006,0,0.012,0,0.018c0.064,0.049,0.105,0.1,0.21,0.059C4.382,9.36,4.414,9.329,4.445,9.298z M1.375,9.185
				C1.317,9.177,1.259,9.171,1.202,9.163c-0.08,0.076-0.129,0.109-0.152,0.25C1.088,9.476,1.125,9.54,1.164,9.603
				c0.07,0,0.141,0,0.211,0c0.09-0.043,0.1-0.09,0.152-0.172C1.515,9.294,1.478,9.229,1.375,9.185z M0.516,9.259
				C0.49,9.292,0.465,9.323,0.44,9.354c-0.007,0.045-0.014,0.09-0.02,0.135c0.098,0.066,0.141,0.082,0.267,0.037
				C0.7,9.489,0.713,9.45,0.725,9.413C0.679,9.308,0.661,9.269,0.516,9.259z M1.47,9.927c0.088,0.055,0.161,0.082,0.229-0.02
				c0.007-0.043,0.013-0.088,0.019-0.133C1.666,9.749,1.616,9.724,1.565,9.698C1.526,9.729,1.487,9.761,1.45,9.794
				C1.457,9.839,1.462,9.884,1.47,9.927z M0.916,10.022c0.042,0.078,0.072,0.1,0.134,0.152c0.03-0.006,0.062-0.012,0.096-0.02
				c0.03-0.031,0.063-0.062,0.095-0.096c0.005-0.043,0.013-0.088,0.018-0.133C1.233,9.907,1.209,9.89,1.184,9.87
				C1.141,9.835,1.117,9.833,1.03,9.833C0.966,9.896,0.936,9.907,0.916,10.022z M9.577,9.985c-0.33,0.131-0.588,0.158-0.726,0.477
				c-0.286,0.664,0.332,1.037,1.011,0.82c0.281,0.221,0.178,0.193,0.477,0.037c-0.043-0.057-0.088-0.113-0.133-0.172
				C10.702,10.532,10.665,9.94,9.577,9.985z M9.978,10.825c-0.02,0.012-0.039,0.023-0.057,0.037
				c-0.143-0.188-0.182-0.01-0.344,0.076c0.02,0.031,0.037,0.064,0.057,0.096c-0.176,0-0.246-0.031-0.344-0.096
				c-0.102-0.371,0.078-0.527,0.324-0.668C10.071,10.247,10.079,10.499,9.978,10.825z M5.952,11.147
				c0.236-0.189,0.249-0.785,0.344-1.105c0-0.008,0-0.014,0-0.02c-0.147,0-0.292,0-0.439,0c-0.075,0.305-0.152,0.609-0.229,0.916
				c-0.103,0.066-0.308,0.148-0.458,0.057c-0.189-0.133,0.058-0.754,0.096-0.973c-0.146,0-0.292,0-0.438,0
				c-0.049,0.271-0.294,0.816-0.152,1.07C4.838,11.442,5.696,11.354,5.952,11.147z M8.05,10.022c-0.14,0-0.28,0-0.419,0
				c-0.058,0.242-0.115,0.484-0.172,0.725c0,0.012,0,0.025,0,0.039c-0.14-0.254-0.279-0.51-0.42-0.764c-0.171,0-0.342,0-0.515,0
				c-0.089,0.4-0.178,0.803-0.268,1.201c0,0.02,0,0.039,0,0.059c0.141,0,0.28,0,0.421,0c0.057-0.248,0.114-0.496,0.171-0.744
				c0-0.014,0-0.025,0-0.039c0.006,0,0.012,0,0.019,0c0.14,0.26,0.279,0.521,0.42,0.783c0.006,0,0.013,0,0.019,0
				c0.158,0,0.318,0,0.478,0C7.872,10.862,7.961,10.442,8.05,10.022z M8.299,10.022c-0.089,0.42-0.178,0.84-0.268,1.26
				c0.146,0,0.293,0,0.438,0c0.089-0.42,0.178-0.84,0.268-1.26C8.591,10.022,8.444,10.022,8.299,10.022z M12.267,10.022
				c-0.146,0-0.293,0-0.439,0c-0.076,0.305-0.152,0.609-0.229,0.916c-0.104,0.066-0.307,0.148-0.457,0.057
				c-0.189-0.133,0.057-0.754,0.096-0.973c-0.146,0-0.293,0-0.439,0c-0.049,0.271-0.295,0.816-0.152,1.07
				c0.164,0.35,1.021,0.262,1.277,0.055c0.234-0.189,0.25-0.785,0.344-1.105C12.267,10.034,12.267,10.028,12.267,10.022z
				 M12.229,11.224c0,0.02,0,0.039,0,0.059c0.432,0,0.865,0,1.297,0c0.018-0.09,0.037-0.178,0.057-0.268c-0.285,0-0.572,0-0.859,0
				c0.014-0.076,0.025-0.152,0.039-0.229c0.273,0,0.547,0,0.82,0c0.02-0.082,0.039-0.166,0.057-0.248c0-0.006,0-0.014,0-0.02
				c-0.268,0-0.533,0-0.801,0c0.012-0.076,0.025-0.154,0.037-0.229c0.293,0,0.586,0,0.879,0c0.012-0.09,0.025-0.178,0.039-0.268
				c-0.434,0-0.865,0-1.297,0C12.407,10.423,12.317,10.825,12.229,11.224z M4.426,10.29c0.039-0.062,0.056-0.076,0.058-0.189
				c-0.026-0.014-0.052-0.027-0.077-0.041c-0.031-0.006-0.064-0.012-0.095-0.018c-0.019,0.031-0.038,0.064-0.058,0.096
				c-0.021,0.059-0.004,0.078,0.02,0.133C4.324,10.278,4.376,10.284,4.426,10.29z M4.655,11.587c0.07-0.035,0.098-0.043,0.134-0.115
				c0.006-0.051,0.012-0.102,0.019-0.152c-0.039-0.031-0.077-0.062-0.114-0.096c-0.039-0.006-0.076-0.012-0.114-0.018
				c-0.039,0.037-0.077,0.076-0.116,0.113c-0.038,0.09,0.004,0.162,0.039,0.23C4.553,11.562,4.604,11.573,4.655,11.587z
				 M1.487,11.356c-0.03-0.006-0.062-0.012-0.094-0.018c-0.026,0.031-0.052,0.064-0.076,0.096c-0.043,0.094-0.003,0.156,0.076,0.189
				c0.038,0,0.077,0,0.115,0c0.031-0.031,0.062-0.062,0.095-0.094C1.59,11.419,1.573,11.396,1.487,11.356z M5.36,11.567
				c-0.038,0.039-0.075,0.076-0.114,0.115c0,0.045,0,0.088,0,0.135c0.062,0.035,0.083,0.053,0.191,0.055c0.006,0,0.013,0,0.019,0
				c0.048-0.064,0.1-0.105,0.058-0.209C5.475,11.595,5.452,11.585,5.36,11.567z M5.113,12.159c0.024-0.084,0.045-0.156,0.019-0.248
				c-0.013-0.031-0.025-0.062-0.038-0.094C5,11.751,4.947,11.716,4.769,11.72c-0.051,0.039-0.102,0.078-0.152,0.115
				c-0.013,0.037-0.025,0.076-0.038,0.115c-0.001,0.143,0.026,0.213,0.114,0.266C4.836,12.362,5.002,12.251,5.113,12.159z
				 M0.802,12.122c-0.038,0.043-0.077,0.088-0.115,0.133c-0.005,0.057-0.013,0.113-0.018,0.172c0.156,0.141,0.201,0.107,0.438,0.076
				c0.038-0.061,0.052-0.064,0.057-0.172c-0.057-0.064-0.113-0.127-0.171-0.191C0.929,12.134,0.865,12.128,0.802,12.122z
				 M6.678,12.14c-0.039,0.045-0.077,0.09-0.115,0.135c-0.007,0.043-0.013,0.088-0.02,0.133c0.046,0.037,0.089,0.076,0.135,0.115
				c0.05,0.006,0.102,0.012,0.152,0.02c0.031-0.039,0.064-0.078,0.096-0.115c0.006-0.059,0.013-0.115,0.019-0.172
				c-0.037-0.031-0.076-0.062-0.114-0.096C6.779,12.153,6.728,12.146,6.678,12.14z M5.304,12.847
				c0.049-0.066,0.108-0.135,0.057-0.248c-0.044-0.082-0.079-0.098-0.209-0.096c-0.032,0.039-0.063,0.076-0.096,0.113
				c-0.06,0.127,0.019,0.211,0.134,0.23C5.227,12.847,5.265,12.847,5.304,12.847z M3.014,12.769c0-0.031,0-0.062,0-0.094
				c-0.006-0.02-0.012-0.039-0.019-0.059c-0.045-0.006-0.089-0.012-0.134-0.018c-0.025,0.025-0.05,0.051-0.076,0.076
				c0.007,0.045,0.013,0.088,0.02,0.133c0.056,0.014,0.114,0.025,0.171,0.039C2.989,12.821,3.002,12.796,3.014,12.769z M3.548,12.79
				c-0.013-0.033-0.025-0.064-0.038-0.096c-0.051-0.006-0.101-0.014-0.153-0.02c-0.013,0.02-0.025,0.037-0.038,0.057
				c-0.007,0.043-0.013,0.09-0.019,0.133c0.024,0.02,0.05,0.039,0.076,0.059c0.038-0.006,0.075-0.014,0.114-0.02
				C3.51,12.864,3.53,12.827,3.548,12.79z M4.121,13.323c0.044-0.045,0.089-0.09,0.133-0.133c0.04-0.09,0.004-0.191-0.02-0.268
				c-0.083-0.055-0.124-0.092-0.268-0.096c-0.106,0.072-0.138,0.104-0.209,0.209c0.006,0.158,0.055,0.238,0.171,0.287
				C3.994,13.323,4.057,13.323,4.121,13.323z M6.296,12.903c-0.032,0.039-0.064,0.076-0.095,0.113
				c-0.007,0.045-0.013,0.09-0.019,0.135c0.038,0.033,0.075,0.064,0.114,0.096c0.044,0.006,0.089,0.012,0.133,0.02
				c0.084-0.078,0.118-0.094,0.114-0.268c-0.024-0.02-0.05-0.039-0.076-0.057C6.422,12.905,6.387,12.901,6.296,12.903z
				 M3.434,13.208c-0.029-0.066,0.053-0.129,0-0.209c-0.048-0.072-0.083-0.08-0.209-0.076c-0.201,0.195-0.424,0.854,0.172,0.818
				C3.708,13.474,3.552,13.472,3.434,13.208z M7.689,13.095c-0.039,0.037-0.077,0.074-0.116,0.113
				c0.007,0.045,0.014,0.09,0.02,0.133c0.096,0.066,0.208,0.09,0.267-0.037c0.006-0.031,0.012-0.062,0.02-0.096
				c-0.007-0.012-0.014-0.023-0.02-0.039C7.803,13.146,7.745,13.12,7.689,13.095z M0.401,13.151
				c-0.044,0.051-0.089,0.102-0.134,0.152c-0.038,0.086-0.003,0.176,0.021,0.248c0.043,0.025,0.087,0.051,0.133,0.076
				c0.238,0.008,0.316-0.082,0.305-0.324c-0.051-0.045-0.102-0.088-0.152-0.135C0.516,13.163,0.458,13.157,0.401,13.151z
				 M4.959,13.437c0.033,0.006,0.064,0.014,0.096,0.02c0.039-0.037,0.077-0.074,0.114-0.115c-0.01-0.154-0.058-0.193-0.229-0.189
				C4.87,13.243,4.812,13.374,4.959,13.437z M4.769,13.552c-0.077-0.049-0.113-0.076-0.248-0.078
				C4.442,13.54,4.4,13.567,4.35,13.667c0.006,0.094,0.014,0.121,0.058,0.172c0.05,0.09,0.121,0.102,0.268,0.096
				c0.038-0.045,0.075-0.09,0.114-0.135C4.827,13.714,4.794,13.62,4.769,13.552z M5.991,13.591c-0.039-0.008-0.077-0.014-0.114-0.02
				c-0.039,0.037-0.077,0.076-0.116,0.115c0.007,0.043,0.014,0.088,0.021,0.133c0.07,0.051,0.078,0.072,0.209,0.076
				c0.013-0.006,0.025-0.014,0.038-0.02C6.095,13.778,6.119,13.649,5.991,13.591z M1.298,13.647
				c-0.052,0.057-0.077,0.076-0.096,0.172c0.132,0.225,0.448-0.051,0.21-0.152C1.375,13.659,1.335,13.653,1.298,13.647z
				 M2.289,13.724c-0.03,0.018-0.063,0.037-0.094,0.059c-0.006,0.057-0.014,0.113-0.019,0.17c0,0.006,0,0.014,0,0.02
				c0.129,0.104,0.329,0.117,0.324-0.133c-0.039-0.031-0.077-0.064-0.116-0.098C2.354,13.735,2.321,13.729,2.289,13.724z
				 M7.039,13.741c-0.024,0.033-0.05,0.066-0.076,0.098c-0.042,0.092-0.002,0.154,0.076,0.189c0.061,0.023,0.087,0.014,0.133-0.02
				c0.107-0.064,0.094-0.199-0.019-0.248C7.116,13.755,7.078,13.749,7.039,13.741z M3.473,13.819
				c-0.026,0.025-0.051,0.051-0.076,0.076c0.013,0.051,0.025,0.102,0.037,0.152c0.052,0.006,0.102,0.012,0.154,0.018
				c0.039-0.062,0.054-0.074,0.056-0.189c-0.025-0.014-0.05-0.025-0.077-0.037C3.536,13.831,3.504,13.825,3.473,13.819z
				 M4.922,13.819c-0.044,0.057-0.089,0.115-0.133,0.172c0.006,0.037,0.012,0.074,0.019,0.115c0.038,0.043,0.077,0.088,0.114,0.133
				c0.095,0.016,0.141,0.004,0.229-0.02c0.05-0.08,0.078-0.123,0.076-0.268c-0.044-0.037-0.089-0.076-0.133-0.113
				C5.036,13.831,4.98,13.825,4.922,13.819z M4.102,13.839c-0.094,0.051-0.144,0.053-0.191,0.152c-0.046,0.102,0,0.213,0.038,0.285
				c0.045,0.02,0.089,0.039,0.134,0.057c0.178-0.004,0.229-0.066,0.285-0.189c-0.013-0.07-0.025-0.141-0.038-0.209
				C4.254,13.901,4.179,13.87,4.102,13.839z M5.246,14.411c0.006,0.043,0.013,0.09,0.019,0.133c0.026,0.012,0.051,0.025,0.077,0.039
				c0.031,0,0.064,0,0.095,0c0.019-0.008,0.039-0.014,0.058-0.02c0.006-0.057,0.013-0.115,0.019-0.172
				c-0.051-0.025-0.102-0.051-0.153-0.076C5.323,14.347,5.285,14.378,5.246,14.411z M2.977,14.448
				c-0.045-0.006-0.089-0.014-0.134-0.02c-0.025,0.031-0.05,0.064-0.076,0.096c-0.007,0.045-0.013,0.09-0.019,0.135
				c0.039,0.023,0.077,0.051,0.114,0.074c0.06,0.025,0.086,0.014,0.134-0.018c0.025-0.025,0.05-0.051,0.076-0.076
				c-0.007-0.051-0.014-0.102-0.02-0.152C3.027,14.474,3.002,14.46,2.977,14.448z M6.105,14.601
				c-0.056,0.059-0.077,0.068-0.095,0.172c0.006,0.02,0.013,0.039,0.019,0.057c0.06,0.039,0.117,0.078,0.21,0.039
				c0.019-0.008,0.039-0.014,0.058-0.02c0-0.057,0-0.115,0-0.172C6.29,14.659,6.283,14.64,6.277,14.62
				C6.219,14.614,6.162,14.608,6.105,14.601z M8.7,14.753c-0.061,0.084-0.085,0.117-0.058,0.248c0.051,0.02,0.102,0.039,0.153,0.057
				c0.07-0.039,0.087-0.041,0.113-0.131c0.018-0.062-0.008-0.094-0.038-0.154C8.814,14.767,8.756,14.759,8.7,14.753z"/>
		</g>
	</g>
</g>
</svg>
