<?xml version="1.0" encoding="iso-8859-1"?>
<!-- Generator: Adobe Illustrator 16.0.0, SVG Export Plug-In . SVG Version: 6.00 Build 0)  -->
<!DOCTYPE svg PUBLIC "-//W3C//DTD SVG 1.1//EN" "http://www.w3.org/Graphics/SVG/1.1/DTD/svg11.dtd">
<svg version="1.1" id="&#x56FE;&#x5C42;_1" xmlns="http://www.w3.org/2000/svg" xmlns:xlink="http://www.w3.org/1999/xlink" x="0px"
	 y="0px" width="16px" height="16px" viewBox="0 0 16 16" style="enable-background:new 0 0 16 16;" xml:space="preserve">
<g>
	<path style="fill:#EEEEEE;" d="M9.854,10.301v1.331H3.013V3.597h4.521c0.348-0.343,0.758-0.623,1.213-0.818H3.013V1.913
		c0-0.189,0.161-0.35,0.351-0.35h6.141c0.19,0,0.351,0.161,0.351,0.35v0.573C10,2.47,10.146,2.46,10.296,2.46
		c0.127,0,0.252,0.007,0.377,0.019V1.913c0-0.642-0.526-1.168-1.169-1.168H3.363c-0.643,0-1.168,0.526-1.168,1.168v12.372
		c0,0.643,0.526,1.169,1.168,1.169h6.141c0.643,0,1.169-0.526,1.169-1.169v-3.977c-0.125,0.012-0.25,0.019-0.377,0.019
		C10.146,10.327,10,10.317,9.854,10.301z M9.854,14.285c0,0.19-0.16,0.351-0.351,0.351H3.363c-0.19,0-0.351-0.16-0.351-0.351v-1.836
		h6.842V14.285z"/>
	<g>
		<path style="fill:#EEEEEE;" d="M10.296,9.654c-1.798,0-3.261-1.462-3.261-3.26c0-1.798,1.463-3.261,3.261-3.261
			s3.26,1.463,3.26,3.261C13.556,8.192,12.094,9.654,10.296,9.654z M10.296,3.951c-1.348,0-2.443,1.096-2.443,2.443
			c0,1.346,1.096,2.443,2.443,2.443c1.347,0,2.441-1.097,2.441-2.443C12.737,5.047,11.643,3.951,10.296,3.951z"/>
	</g>
	<g>
		<polygon style="fill:#EEEEEE;" points="10.145,7.857 8.658,6.666 9.17,6.027 9.999,6.692 11.155,5.157 11.81,5.649 		"/>
	</g>
	<circle style="fill:#EEEEEE;" cx="6.437" cy="13.521" r="0.526"/>
</g>
</svg>
