<?xml version="1.0" encoding="iso-8859-1"?>
<!-- Generator: Adobe Illustrator 16.0.0, SVG Export Plug-In . SVG Version: 6.00 Build 0)  -->
<!DOCTYPE svg PUBLIC "-//W3C//DTD SVG 1.1//EN" "http://www.w3.org/Graphics/SVG/1.1/DTD/svg11.dtd">
<svg version="1.1" id="&#x56FE;&#x5C42;_1" xmlns="http://www.w3.org/2000/svg" xmlns:xlink="http://www.w3.org/1999/xlink" x="0px"
	 y="0px" width="16px" height="16px" viewBox="0 0 16 16" style="enable-background:new 0 0 16 16;" xml:space="preserve">
<g>
	<g>
		<path style="fill:#EEEEEE;" d="M10.893,14.847H5.113c-0.237,0-0.429-0.206-0.429-0.462c0-0.254,0.192-0.461,0.429-0.461h5.779
			c0.237,0,0.43,0.207,0.43,0.461C11.322,14.641,11.13,14.847,10.893,14.847z"/>
	</g>
	<path style="fill:#EEEEEE;" d="M12.932,3.692c0,0-0.001,0-0.002,0c-0.006,0-0.011-0.002-0.018-0.002h-0.049h-1.897h-0.049
		c-0.236,0-0.429,0.207-0.429,0.461c0,0.255,0.192,0.461,0.429,0.461h0.049h0.966L9.918,6.775c-0.167,0.18-0.167,0.472,0,0.652
		c0.085,0.09,0.194,0.135,0.304,0.135c0.11,0,0.219-0.045,0.304-0.135l1.978-2.125v0.943c0,0.254,0.192,0.461,0.429,0.461
		s0.43-0.207,0.43-0.461V4.153C13.361,3.898,13.168,3.692,12.932,3.692z"/>
	<path style="fill:#EEEEEE;" d="M14.002,1.153H2.004c-0.944,0-1.716,0.83-1.716,1.844v8.001c0,1.015,0.772,1.845,1.716,1.845h11.998
		c0.944,0,1.717-0.83,1.717-1.845V2.997C15.719,1.983,14.946,1.153,14.002,1.153z M14.86,10.998c0,0.509-0.386,0.923-0.858,0.923
		H2.004c-0.473,0-0.858-0.414-0.858-0.923V2.997c0-0.508,0.385-0.922,0.858-0.922h11.998c0.473,0,0.858,0.414,0.858,0.922V10.998z"
		/>
</g>
</svg>
